<?xml version="1.0" standalone="no"?>
<!DOCTYPE svg PUBLIC "-//W3C//DTD SVG 20010904//EN"
 "http://www.w3.org/TR/2001/REC-SVG-20010904/DTD/svg10.dtd">
<svg version="1.0" xmlns="http://www.w3.org/2000/svg"
 width="260.000000pt" height="260.000000pt" viewBox="0 0 260.000000 260.000000"
 preserveAspectRatio="xMidYMid meet">
<metadata>
Created by potrace 1.11, written by Peter Selinger 2001-2013
</metadata>
<g transform="translate(0.000000,260.000000) scale(0.100000,-0.100000)"
fill="#000000" stroke="none">
<path d="M850 2375 c-202 -38 -348 -131 -465 -298 -162 -231 -212 -481 -159
-786 20 -113 71 -239 139 -345 120 -187 435 -538 574 -640 126 -92 237 -127
411 -130 330 -6 550 136 804 518 151 226 224 409 231 576 6 145 -37 321 -107
438 -48 78 -181 212 -226 226 -11 4 -30 15 -42 26 -12 11 -27 17 -31 14 -5 -3
-9 -1 -9 4 0 14 -188 104 -201 96 -8 -4 -9 -3 -5 4 6 11 0 14 -20 11 -4 0 -10
3 -13 8 -3 5 -37 25 -76 44 -38 18 -72 37 -75 40 -10 12 -110 59 -110 52 0 -5
-4 -3 -8 3 -4 7 -42 28 -85 49 -67 32 -80 35 -95 24 -15 -13 -16 -12 -3 4 11
14 11 17 0 19 -30 3 -35 4 -56 16 -13 7 -23 10 -23 7 0 -3 -9 -1 -19 4 -47 26
-233 35 -331 16z m635 -194 c3 -5 2 -12 -3 -15 -5 -3 -9 1 -9 9 0 17 3 19 12
6z m75 5 c0 -2 -7 -7 -16 -10 -8 -3 -12 -2 -9 4 6 10 25 14 25 6z m34 -44 c3
-5 -1 -9 -9 -9 -8 0 -12 4 -9 9 3 4 7 8 9 8 2 0 6 -4 9 -8z m36 -22 c0 -5 -5
-10 -11 -10 -5 0 -7 5 -4 10 3 6 8 10 11 10 2 0 4 -4 4 -10z"/>
</g>
</svg>
