<?xml version="1.0" encoding="UTF-8" standalone="no"?><!-- Generator: Gravit.io --><svg xmlns="http://www.w3.org/2000/svg" xmlns:xlink="http://www.w3.org/1999/xlink" style="isolation:isolate" viewBox="0 0 252 62" width="252pt" height="62pt"><path d=" M 24.57 24.385 L 24.57 24.385 L 24.57 24.385 Q 24.57 30.127 21.184 33.256 L 21.184 33.256 L 21.184 33.256 Q 17.797 36.385 11.563 36.385 L 11.563 36.385 L 8.961 36.385 L 8.961 47.752 L -0.297 47.752 L -0.297 13.486 L 11.563 13.486 L 11.563 13.486 Q 18.055 13.486 21.313 16.322 L 21.313 16.322 L 21.313 16.322 Q 24.57 19.158 24.57 24.385 Z  M 8.961 20.963 L 8.961 28.838 L 10.648 28.838 L 10.648 28.838 Q 12.734 28.838 13.965 27.666 L 13.965 27.666 L 13.965 27.666 Q 15.195 26.494 15.195 24.432 L 15.195 24.432 L 15.195 24.432 Q 15.195 20.963 11.352 20.963 L 11.352 20.963 L 8.961 20.963 L 8.961 20.963 Z  M 52.484 47.752 L 30.031 47.752 L 30.031 13.486 L 39.289 13.486 L 39.289 40.275 L 52.484 40.275 L 52.484 47.752 L 52.484 47.752 Z  M 89.117 47.752 L 78.992 47.752 L 77.305 41.33 L 66.172 41.33 L 64.438 47.752 L 54.266 47.752 L 65.445 13.346 L 77.797 13.346 L 89.117 47.752 L 89.117 47.752 Z  M 68.094 33.736 L 75.383 33.736 L 73.906 28.111 L 73.906 28.111 Q 73.391 26.236 72.652 23.26 L 72.652 23.26 L 72.652 23.26 Q 71.914 20.283 71.68 18.994 L 71.68 18.994 L 71.68 18.994 Q 71.469 20.189 70.848 22.932 L 70.848 22.932 L 70.848 22.932 Q 70.227 25.674 68.094 33.736 L 68.094 33.736 L 68.094 33.736 Z  M 125.445 13.486 L 125.445 47.752 L 113.305 47.752 L 100.789 23.611 L 100.578 23.611 L 100.578 23.611 Q 101.023 29.307 101.023 32.307 L 101.023 32.307 L 101.023 47.752 L 92.82 47.752 L 92.82 13.486 L 104.914 13.486 L 117.383 37.299 L 117.523 37.299 L 117.523 37.299 Q 117.195 32.119 117.195 28.979 L 117.195 28.979 L 117.195 13.486 L 125.445 13.486 L 125.445 13.486 Z  M 153.195 40.205 L 153.195 47.752 L 132.852 47.752 L 132.852 13.486 L 153.195 13.486 L 153.195 20.916 L 142.109 20.916 L 142.109 26.307 L 152.375 26.307 L 152.375 33.736 L 142.109 33.736 L 142.109 40.205 L 153.195 40.205 L 153.195 40.205 Z  M 174.313 21.057 L 174.313 47.752 L 165.055 47.752 L 165.055 21.057 L 156.688 21.057 L 156.688 13.486 L 182.656 13.486 L 182.656 21.057 L 174.313 21.057 L 174.313 21.057 Z " fill="rgb(0,0,0)"/><path d=" M 190 31.131 C 190 14.021 203.891 0.131 221 0.131 C 238.109 0.131 252 14.021 252 31.131 C 252 48.24 238.109 62.131 221 62.131 C 203.891 62.131 190 48.24 190 31.131 Z " fill="rgb(0,0,0)"/><path d=" M 241.16 49.855 L 229.348 49.855 L 227.379 42.363 L 214.391 42.363 L 212.367 49.855 L 200.5 49.855 L 213.543 9.715 L 227.953 9.715 L 241.16 49.855 L 241.16 49.855 Z  M 216.633 33.504 L 225.137 33.504 L 223.414 26.941 L 223.414 26.941 Q 222.813 24.754 221.951 21.281 L 221.951 21.281 L 221.951 21.281 Q 221.09 17.809 220.816 16.305 L 220.816 16.305 L 220.816 16.305 Q 220.57 17.699 219.846 20.898 L 219.846 20.898 L 219.846 20.898 Q 219.121 24.098 216.633 33.504 L 216.633 33.504 L 216.633 33.504 Z " fill="rgb(255,255,255)"/></svg>